<?xml version="1.0" encoding="utf-8"?>
<!-- Generator: Adobe Illustrator 22.0.1, SVG Export Plug-In . SVG Version: 6.00 Build 0)  -->
<svg version="1.1" id="Layer_1" xmlns="http://www.w3.org/2000/svg" xmlns:xlink="http://www.w3.org/1999/xlink" x="0px" y="0px"
	 viewBox="0 0 841.9 595.3" style="enable-background:new 0 0 841.9 595.3;" xml:space="preserve">
<style type="text/css">
	.st0{fill:#532972;}
</style>
<g>
	<path class="st0" d="M750.8,369.4c2.3-1.1,4.6-2.2,6.9-3.3c10.1-4.7,20.6-6.9,31.9-5.1c14.7,2.4,23.5,19,16.6,32
		c-0.5,1-1.1,2-1.9,2.8c-1.8,2-3.9,1.6-4.5-1c-3.3-14-20.1-21.3-33.2-18.9c-6.8,1.2-12.9,3.8-18.9,6.9c-3,1.6-4.9,4.1-6.1,7.3
		c-7.7,20.5-15.1,41.2-23.5,61.5c-7.8,18.8-16.8,37.2-30.2,52.9c-6.7,7.9-14.5,14.5-24.9,17.3c-7.8,2.1-15.5,1.5-22.7-2
		c-9.6-4.7-12.9-13.2-12.9-23.4c0-15.1,6-28,14.4-40c10.3-14.8,23.6-26.9,36.7-39.1c8.8-8.2,18.3-15.7,27.2-23.9
		c2.3-2.1,4.2-5,5.4-7.8c2.5-6.1,4.5-12.5,6.6-18.8c0.4-1.1,0.4-2.3,0.5-3.4c-0.3-0.1-0.5-0.3-0.8-0.4c-0.9,0.9-1.8,1.7-2.6,2.7
		c-7.7,9.2-16.3,17.4-28,21c-14,4.3-27.5,2.9-39.3-6.5c-5.8-4.6-8.4-11.3-9.8-18.4c-0.2-1.1-0.7-2.2-1.4-4c-1.2,1.3-1.9,2.1-2.6,2.9
		c-10,11.6-21.5,21.2-36.4,25.9c-7.8,2.5-15.8,3.1-23.6,0.3c-12.8-4.5-18.1-16.6-15.3-28.5c3.2-13.6,8-26.9,12.4-40.2
		c6.9-20.5,14-40.9,21.1-61.3c6.8-19.5,13.8-39,20.6-58.6c4.3-12.4,8.6-24.9,12.7-37.4c1.2-3.8,1.9-7.9,2.6-11.9
		c0.6-3.7,0.6-7.3-1.5-10.8c-0.5-0.8,0-3.1,0.8-3.6c7.6-4.7,22.1-7.9,31.1,0c3.7,3.3,5.8,7.4,6,12.4c0.4,10.3-3.1,19.7-6.4,29.2
		c-4.5,12.8-9.1,25.6-13.8,38.5c-5.8,16-11.6,31.9-17.3,47.9c-4.6,12.8-9,25.7-13.6,38.5c-4.8,13.6-10,27-14.4,40.7
		c-1.7,5.1-2.1,10.8-2.2,16.3c0,8.4,6.8,12.4,14.6,8.8c6.4-2.9,11.3-7.8,15.5-13.2c9.8-12.5,15.1-27.3,20.9-41.8
		c5.6-14,10.9-28.1,15.8-42.4c2.2-6.4,4.5-13.1,1.7-20.1c-0.3-0.7,0.4-2.4,1.1-2.8c7.2-4.3,20.3-7.5,28.5-0.4
		c5.9,5.1,6.5,11.7,6,18.8c-0.7,9.8-5.3,18.3-8.6,27.2c-6.9,18.3-14.3,36.5-21,54.9c-1.8,5-2.7,10.6-2.7,15.9
		c0,12,6.8,13.1,15.4,9.6c9.7-3.9,17.1-11.1,23.6-19.1c13.4-16.7,22.6-35.7,30.3-55.5c4.1-10.6,8.2-21.2,11.8-32
		c1.6-4.8,1.9-10.1,2.5-15.3c0.3-2.5,1.1-4.5,3.7-5.5c6.6-2.6,13.2-4.8,20.3-1.8c8.4,3.6,12.8,12.6,10.4,23.2
		c-1.9,8.1-4.8,15.9-7.6,23.8c-6.3,17.4-12.8,34.6-19.1,52c-2.8,7.6-5.6,15.2-8.4,22.8c-0.4,1.2-0.7,2.5-1.1,3.7
		C750.2,369,750.5,369.2,750.8,369.4z M703.7,412.4c-0.3-0.2-0.6-0.5-0.9-0.7c-0.9,0.6-1.8,1.1-2.6,1.8c-3.4,3-6.7,6-10.1,9
		c-14.4,12.9-28,26.5-39,42.5c-5.3,7.7-10.3,15.6-11.3,25.3c-0.8,8,4.5,13,11.8,10.6c2.3-0.8,4.6-2,6.5-3.5
		c9.8-7.5,15.9-17.9,21.1-28.5c7.8-16,14.6-32.4,21.7-48.7C702.1,417.7,702.8,415,703.7,412.4z"/>
	<path class="st0" d="M46.2,266.4c0.3-18.7,5.6-36.2,13.7-52.9c8.5-17.5,19.7-33.1,33.5-46.7c14.2-14.1,30.4-25.6,49.4-32.2
		c10.1-3.5,20.6-5.8,31.5-3.8c10.2,1.9,17.7,7.3,21.2,17.2c2.3,6.5,2.6,13.4,1.2,20c-1.6,7.8-3.8,15.5-6.2,23
		c-4.9,15-10.2,29.8-15.3,44.7c-3.1,9-6.3,18.1-9.4,27.1c-0.3,0.8-0.3,2,0.1,2.8c0.2,0.3,1.7,0.4,2.4,0.1
		c9.5-3.7,19.2-7.1,28.5-11.4c20.3-9.4,39.1-21.5,56.7-35.3c12.4-9.7,24.4-20.1,33.4-33.3c2.9-4.2,5-9,7.3-13.6c1.4-2.9,3.9-4,6-1.6
		c2,2.4,3.9,5.3,4.6,8.3c1.1,5.3,0.3,10.7-2,15.8c-5.2,11.4-13.1,20.7-21.8,29.4c-20.3,20.2-43.7,36.1-69,49.4
		c-3.1,1.6-6.1,3.4-9.4,4.7c-3.1,1.2-3.5,3-2.3,5.8c3.7,8.7,7.2,17.5,11.1,26.1c7.4,16.3,14.8,32.6,22.5,48.7
		c5.5,11.5,11.7,22.6,20,32.4c7.3,8.6,16,15.1,26.9,18.4c17.8,5.4,34.2,2.5,49.5-8c0.1-0.1,0.2-0.1,0.3-0.2c1.4-1.4,2.9-3.7,5-1.7
		c2,2,0.2,4.2-1.2,6c-13,16.3-29.7,24.6-50.7,24.6c-12.5,0-24.5-1.9-35.6-7.5c-9.4-4.7-17.2-11.5-24-19.5
		c-13-15.2-22.5-32.6-30.8-50.6c-8.8-19.3-17.2-38.6-25.8-58c-0.9-2-2.1-3.2-4.4-2c-0.7,0.3-1.5,0.5-2.2,0.7c-4,1.2-6.9,3.2-8.4,7.7
		c-6.5,19.7-13.8,39-20.2,58.7c-2.9,9.2-5.5,18.7-4.6,28.5c0.3,3,1.5,6,2.9,8.7c1.5,2.9,1.2,4.6-2,5.5c-8.1,2.4-16.2,2.7-23.9-1.6
		c-6.2-3.5-9.7-8.9-11-16.1c-2.3-12.5,2.2-23.8,6.1-35.1c4-11.7,8-23.4,12-35.1c5.8-16.9,11.6-33.9,17.4-50.8
		c6.3-18.3,12.6-36.6,18.9-54.9c4.5-13.2,9.2-26.3,13.3-39.6c1.2-3.8,1.1-8.2,0.7-12.3c-0.4-4.1-4.3-6.9-8.6-7.3
		c-8.1-0.7-15.4,1.8-22.4,5.3c-13.8,6.9-25.1,17.1-35.3,28.5c-11.4,12.8-20.2,27.1-26.1,43.1c-5.3,14.3-7.3,29.2-4.6,44.2
		c1.2,6.6,4.4,12.7,11.8,14.8c2.2,0.6,2.4,1.8,1.4,3.8c-2.6,5.1-6.6,7.8-12.4,8c-6.4,0.2-11-2.6-14.5-7.7
		C46.3,282.7,46.1,274.5,46.2,266.4z"/>
	<path class="st0" d="M426.2,367.2c-1.6,1-2.6,1.5-3.4,2.2c-7.5,6.5-15.4,12.5-24.8,16.1c-7.6,3-15.4,4.7-23.5,2.9
		c-11.1-2.5-18.3-11.3-18.8-22.6c0-1-0.2-1.9-0.4-4c-1.7,1.5-2.7,2.3-3.6,3.3c-9.6,10.8-20.8,19.6-35.2,22.6
		c-11.5,2.4-22.7,1.6-32.1-6.7c-5.2-4.7-7.6-10.8-8.5-17.5c-1.4-10.9,1-21.4,4-31.7c4.4-15.1,9.3-30.1,14-45.1
		c2.4-7.6,5-15.2,7.1-22.9c1.2-4.4,1.8-9,0.1-13.6c-0.4-1,0.4-3.1,1.3-3.7c7.4-4.6,21.5-5.9,29.4,0.4c5.8,4.5,6.5,13.3,4.5,19.2
		c-6.7,20.3-13.7,40.5-20.2,60.8c-2.8,8.6-4.9,17.5-6.6,26.4c-0.9,4.7-0.6,9.8,2.7,13.9c3.7,4.5,9.7,5.2,16,2.1
		c8.9-4.3,15.4-11.2,21-19.1c9.7-13.7,16.5-28.9,21.9-44.7c3.9-11.5,8-23,11.7-34.5c2.2-6.8,4.3-13.8,1.6-21.1
		c-0.3-0.8,0.7-2.8,1.6-3.3c7.6-4.4,15.7-6.2,24.2-3c6,2.3,9,7,9.6,13.2c0.6,6.1-0.4,12.1-2.3,18c-5.9,17.5-11.8,35-17.7,52.5
		c-2.7,7.9-5.7,15.7-7.9,23.7c-1,3.7-1.2,7.8-0.8,11.6c0.5,5,5.2,7.7,10.6,7c7-0.9,12.7-4.6,17.7-9.2c13.2-12.3,21.7-27.8,27.8-44.6
		c4.5-12.5,9.4-24.8,13.5-37.4c3-9.1,5.9-18.2,4.6-28.1c-0.1-1,0.8-2.7,1.7-3.2c7.9-3.9,16.1-5.9,24.7-2.7c6.2,2.3,10,9.3,9,16.6
		c-0.6,4.6-1.9,9.2-2.9,13.8c-0.2,0.9-0.2,1.9,0.4,3.3c0.8-0.8,1.7-1.5,2.4-2.3c8.3-9.6,16.8-18.9,27.7-25.6
		c9-5.6,18.5-8.6,29.2-4.7c8.9,3.2,14.2,11.4,13.6,21c-0.9,15.8-12.5,29.2-27.4,31.8c-0.8,0.1-1.6,0.3-2.3,0.4c-3.4,0.3-4-1-3.1-4.2
		c1-3.5,1.9-7.3,1.4-10.7c-1.1-6.6-7.2-9.5-13.7-7.7c-7.9,2.2-14,7.1-19.8,12.5c-12.2,11.4-20.5,25.3-26.8,40.6
		c-4.7,11.3-9.4,22.6-13.5,34.2c-2.2,6.1-3,12.6-4.6,18.9c-0.3,1.1-0.9,2.4-1.7,3.1c-6.1,4.8-22.6,5.7-28.8-0.8
		c-3.1-3.2-4.3-7-4.6-11.2C426.1,371.1,426.2,369.6,426.2,367.2z"/>
	<path class="st0" d="M251.6,149.3c-5.5-16.3-11-32.4-16.5-48.7c3.2-1.2,6.2-2.6,9.3-3.5c1-0.3,2.6,0.2,3.5,0.9
		c5.8,4.3,11.4,8.7,17.6,13.4c1.4-5.4,3.4-10.3,3.9-15.3c0.8-7.1,4.5-10.8,11.2-12c0.5-0.1,1.1-0.4,2-0.7
		c5.5,16.2,11,32.3,16.5,48.7c-3.6,1.4-7.1,2.7-10.7,4.1c-3.4-10.1-6.8-20-10.2-30c-0.3,0-0.6,0-0.9,0c-2.1,7.4-4.1,14.8-6.3,22.7
		c-6.1-4.5-11.9-8.9-17.8-13.2c-0.2,0.1-0.5,0.3-0.7,0.4c3.2,9.6,6.4,19.2,9.7,29.1C258.7,146.6,255.3,147.9,251.6,149.3z"/>
	<path class="st0" d="M378.2,67.4c8.8-0.3,17.5-1,26.2-0.8c7,0.2,13.5,6.2,14.8,12.5c1.7,7.7-1.6,15.6-8.8,20.3
		c3.8,5.7,7.6,11.5,11.8,17.9c-4.2,0-7.8,0.1-11.3-0.1c-1-0.1-2.1-1.1-2.7-2c-2.5-3.7-4.9-7.5-7.2-11.5c-1.2-2-2.5-2.9-4.9-2.6
		c-2.1,0.3-4.2,0.3-6.3,0.4c0,5.5,0,10.8,0,16.4c-3.2,0.3-6.5,0.5-10.2,0.8C379.2,101.5,378.7,84.7,378.2,67.4z M389.3,76.4
		c0,5.2,0,10,0,15.3c4.7-0.3,9.1-0.3,13.4-1c3.8-0.6,6.5-4.2,6.4-7.6c-0.1-3.5-2.4-6.2-6.8-6.6C398,76.1,393.7,76.4,389.3,76.4z"/>
	<path class="st0" d="M533.2,135.1c-12.6-3.2-24.8-6.4-37.4-9.6c4-16.6,7.9-33.1,12-50c12.2,3.2,24.2,6.4,36.6,9.7
		c-0.8,3.3-1.6,6.3-2.4,9.5c-8.5-2.2-16.7-4.4-25.4-6.7c-0.8,3.1-1.6,6.1-2.5,9.5c7.6,2.1,15.1,4.2,22.7,6.3
		c-0.8,3.4-1.6,6.5-2.5,9.9c-7.5-1.9-14.9-3.8-22.6-5.7c-0.8,3.6-1.6,6.8-2.4,10.2c9,2.3,17.6,4.5,26.6,6.7
		C534.9,128.3,534.1,131.5,533.2,135.1z"/>
	<path class="st0" d="M456.7,98.4c-5,2.4-7.6,6-7.6,11.4c0,2.8-0.6,5.6-0.9,8.7c-3.4-0.3-6.6-0.7-10.2-1c1.7-17.1,3.5-33.9,5.2-51.1
		c3.4,0.3,6.5,0.6,10.1,1c-0.7,7.3-1.3,14.5-2,22.5c4.3-3.6,8-6.6,11.6-9.8c2.7-2.4,5.7-4.6,7.9-7.3c2.5-3,5.3-3.3,8.7-2.8
		c2.1,0.4,4.2,0.5,7.3,0.8c-7.6,7.1-14.7,13.8-22.1,20.7c5.7,10.1,11.5,20.2,17.5,30.9c-4.2-0.4-7.9-0.7-11.6-1.3
		c-0.9-0.1-1.7-1.3-2.3-2.2C464.4,112.1,460.5,105.3,456.7,98.4z"/>
	<path class="st0" d="M335.4,71.9c9.8,15.6,19.7,31.2,29.8,47.2c-4,0.7-7.7,1.3-11.6,1.9c-1.6-2.8-3.3-5.4-4.8-8.2
		c-0.9-1.6-1.9-2.2-3.8-1.8c-5.2,1.1-10.4,2.1-15.6,3c-1.9,0.3-3.2,1-3.1,3.2c0,0.4-0.2,0.9-0.3,1.3c-1.6,8.9-2.6,9.6-12.1,9.4
		c3.6-17.3,7.1-34.6,10.8-51.9c0.2-1,1.5-2.3,2.5-2.6C329.8,72.7,332.5,72.4,335.4,71.9z M342.6,102.3c-3.5-5.5-6.6-10.3-9.7-15.2
		c-0.3,0.1-0.6,0.3-0.8,0.4c-1.1,5.7-2.3,11.4-3.5,17.6C333.5,104.1,337.7,103.3,342.6,102.3z"/>
	<path class="st0" d="M575.2,106.3c-5.1-2-9.7-3.7-14.6-5.6c1.2-3.1,2.4-6.2,3.7-9.6c13.2,5.2,26.2,10.4,39.5,15.6
		c-1.3,3.3-2.5,6.4-3.8,9.8c-4.8-1.8-9.5-3.5-14.7-5.4c-4.6,12.5-9.2,24.9-13.9,37.5c-3.5-1.3-6.7-2.6-10.2-3.9
		C565.8,131.9,570.4,119.2,575.2,106.3z"/>
</g>
</svg>
